<?xml version="1.0" encoding="UTF-8"?>
<svg width="128" height="128" viewBox="0 0 128 128" xmlns="http://www.w3.org/2000/svg">
  <defs>
    <linearGradient id="cardGradient" x1="0%" y1="0%" x2="100%" y2="100%">
      <stop offset="0%" style="stop-color:#667eea;stop-opacity:1" />
      <stop offset="100%" style="stop-color:#764ba2;stop-opacity:1" />
    </linearGradient>
    <linearGradient id="heartGradient" x1="0%" y1="0%" x2="100%" y2="100%">
      <stop offset="0%" style="stop-color:#ff6b6b;stop-opacity:1" />
      <stop offset="100%" style="stop-color:#ee5a52;stop-opacity:1" />
    </linearGradient>
  </defs>
  
  <!-- Background circle -->
  <circle cx="64" cy="64" r="60" fill="url(#cardGradient)" stroke="#fff" stroke-width="4"/>
  
  <!-- Card shape -->
  <rect x="24" y="32" width="80" height="56" rx="8" ry="8" fill="#fff" opacity="0.9"/>
  
  <!-- Card header -->
  <rect x="24" y="32" width="80" height="16" rx="8" ry="8" fill="#f8f9fa"/>
  <rect x="24" y="40" width="80" height="8" fill="#f8f9fa"/>
  
  <!-- Heart icon -->
  <path d="M64 76c-1.5 0-3-0.6-4.1-1.7-2.2-2.2-5.4-3.5-8.7-3.5s-6.5 1.3-8.7 3.5c-4.8 4.8-4.8 12.6 0 17.4l17.4 17.4c1.1 1.1 2.6 1.7 4.1 1.7s3-0.6 4.1-1.7l17.4-17.4c4.8-4.8 4.8-12.6 0-17.4-2.2-2.2-5.4-3.5-8.7-3.5s-6.5 1.3-8.7 3.5c-1.1 1.1-2.6 1.7-4.1 1.7z" fill="url(#heartGradient)" transform="translate(0, -20) scale(0.6)" transform-origin="64 64"/>
  
  <!-- Decorative dots -->
  <circle cx="32" cy="40" r="2" fill="#dee2e6"/>
  <circle cx="38" cy="40" r="2" fill="#dee2e6"/>
  <circle cx="44" cy="40" r="2" fill="#dee2e6"/>
  
  <!-- Text lines -->
  <rect x="32" y="52" width="48" height="2" rx="1" fill="#6c757d"/>
  <rect x="32" y="58" width="36" height="2" rx="1" fill="#6c757d"/>
  <rect x="32" y="64" width="42" height="2" rx="1" fill="#6c757d"/>
  
  <!-- Badge -->
  <circle cx="92" cy="36" r="8" fill="#28a745"/>
  <text x="92" y="40" text-anchor="middle" fill="#fff" font-size="8" font-weight="bold">!</text>
</svg>